<svg xmlns="http://www.w3.org/2000/svg" fill="none" viewBox="0 0 80 80"><mask id="a" width="68" height="68" x="6" y="6" maskUnits="userSpaceOnUse" style="mask-type:alpha"><circle cx="40" cy="40" r="34" fill="#060606"/></mask><g mask="url(#a)"><g filter="url(#b)"><circle cx="40.168" cy="40.167" r="27.5" fill="url(#c)"/></g><g filter="url(#d)"><path fill="url(#e)" fill-rule="evenodd" d="M40.001 6.667c18.41 0 33.333 14.923 33.333 33.333S58.41 73.333 40.001 73.333C21.591 73.333 6.668 58.41 6.668 40S21.592 6.667 40.001 6.667m0 6.666c-14.728 0-26.667 11.94-26.667 26.667s11.94 26.667 26.667 26.667S66.668 54.727 66.668 40s-11.94-26.667-26.667-26.667" clip-rule="evenodd"/><path fill="url(#f)" fill-opacity=".2" fill-rule="evenodd" d="M40.001 6.667c18.41 0 33.333 14.923 33.333 33.333S58.41 73.333 40.001 73.333C21.591 73.333 6.668 58.41 6.668 40S21.592 6.667 40.001 6.667m0 6.666c-14.728 0-26.667 11.94-26.667 26.667s11.94 26.667 26.667 26.667S66.668 54.727 66.668 40s-11.94-26.667-26.667-26.667" clip-rule="evenodd"/><path fill="url(#g)" fill-opacity=".3" fill-rule="evenodd" d="M40.001 6.667c18.41 0 33.333 14.923 33.333 33.333S58.41 73.333 40.001 73.333C21.591 73.333 6.668 58.41 6.668 40S21.592 6.667 40.001 6.667m0 6.666c-14.728 0-26.667 11.94-26.667 26.667s11.94 26.667 26.667 26.667S66.668 54.727 66.668 40s-11.94-26.667-26.667-26.667" clip-rule="evenodd"/><path fill="url(#h)" d="M54.5 25.266c0-.268-.33-.335-.463-.134-4.233 6.633-6.68 10.384-8.797 13.868h-25.4c-.331 0-.464.402-.2.536 10.518 4.02 25.732 10.116 34.265 13.466.198.067.595-.134.595-.268z"/><path fill="url(#i)" fill-opacity=".2" d="M54.5 25.266c0-.268-.33-.335-.463-.134-4.233 6.633-6.68 10.384-8.797 13.868h-25.4c-.331 0-.464.402-.2.536 10.518 4.02 25.732 10.116 34.265 13.466.198.067.595-.134.595-.268z"/><path fill="url(#j)" fill-opacity=".3" d="M54.5 25.266c0-.268-.33-.335-.463-.134-4.233 6.633-6.68 10.384-8.797 13.868h-25.4c-.331 0-.464.402-.2.536 10.518 4.02 25.732 10.116 34.265 13.466.198.067.595-.134.595-.268z"/></g></g><defs><linearGradient id="c" x1="17.484" x2="41.662" y1="17.483" y2="75.854" gradientUnits="userSpaceOnUse"><stop stop-color="#732600"/><stop offset="1" stop-color="#260d00"/><stop offset="1" stop-color="#401500"/></linearGradient><linearGradient id="e" x1="38.501" x2="38.501" y1="28.436" y2="51.784" gradientUnits="userSpaceOnUse"><stop stop-color="#fd6e35"/><stop offset="1" stop-color="#f50"/></linearGradient><linearGradient id="f" x1="38.501" x2="38.501" y1="28.436" y2="35.288" gradientUnits="userSpaceOnUse"><stop stop-color="#fff"/><stop offset="1" stop-color="#fff" stop-opacity="0"/></linearGradient><linearGradient id="g" x1="30.275" x2="35.9" y1="24.022" y2="40.987" gradientUnits="userSpaceOnUse"><stop stop-color="red"/><stop offset="1" stop-color="red" stop-opacity="0"/></linearGradient><linearGradient id="h" x1="38.501" x2="38.501" y1="28.436" y2="51.784" gradientUnits="userSpaceOnUse"><stop stop-color="#fd6e35"/><stop offset="1" stop-color="#f50"/></linearGradient><linearGradient id="i" x1="38.501" x2="38.501" y1="28.436" y2="35.288" gradientUnits="userSpaceOnUse"><stop stop-color="#fff"/><stop offset="1" stop-color="#fff" stop-opacity="0"/></linearGradient><linearGradient id="j" x1="30.275" x2="35.9" y1="24.022" y2="40.987" gradientUnits="userSpaceOnUse"><stop stop-color="red"/><stop offset="1" stop-color="red" stop-opacity="0"/></linearGradient><filter id="b" width="55" height="56" x="12.668" y="12.667" color-interpolation-filters="sRGB" filterUnits="userSpaceOnUse"><feFlood flood-opacity="0" result="BackgroundImageFix"/><feBlend in="SourceGraphic" in2="BackgroundImageFix" result="shape"/><feColorMatrix in="SourceAlpha" result="hardAlpha" values="0 0 0 0 0 0 0 0 0 0 0 0 0 0 0 0 0 0 127 0"/><feOffset dy="1"/><feGaussianBlur stdDeviation="1.5"/><feComposite in2="hardAlpha" k2="-1" k3="1" operator="arithmetic"/><feColorMatrix values="0 0 0 0 0 0 0 0 0 0 0 0 0 0 0 0 0 0 0.46 0"/><feBlend in2="shape" result="effect1_innerShadow_9709_57359"/></filter><filter id="d" width="70.668" height="70.666" x="4.668" y="4.677" color-interpolation-filters="sRGB" filterUnits="userSpaceOnUse"><feFlood flood-opacity="0" result="BackgroundImageFix"/><feColorMatrix in="SourceAlpha" result="hardAlpha" values="0 0 0 0 0 0 0 0 0 0 0 0 0 0 0 0 0 0 127 0"/><feOffset dy=".01"/><feGaussianBlur stdDeviation="1"/><feColorMatrix values="0 0 0 0 0 0 0 0 0 0 0 0 0 0 0 0 0 0 0.64 0"/><feBlend in2="BackgroundImageFix" result="effect1_dropShadow_9709_57359"/><feBlend in="SourceGraphic" in2="effect1_dropShadow_9709_57359" result="shape"/></filter></defs></svg>